# xmcd
#
# Track frame offsets: 
#        183
#        11688
#        27715
#        42753
#        56615
#        72768
#        86573
#        99585
#        115575
#        126433
#        137260
#        146873
#        155365
#        164713
#        181373
#        193800
#
# Disc length: 2819 seconds
#
# Revision: 0
# Processed by: cddbd v1.5.2PL0 Copyright (c) Steve Scherf et al.
# Submitted via: ExactAudioCopy v0.99pb5
#
DISCID=e30b0110
DTITLE=Various Artist - 연인들의 합창 Vol.3 라틴
DYEAR=1900
DGENRE=Chanson
TTITLE0=Quizas Quizas
TTITLE1=La Bamba
TTITLE2=Uskadara
TTITLE3=Besame Mucho
TTITLE4=El Condor Pasa
TTITLE5=Capree Island
TTITLE6=Paloma Blanca
TTITLE7=Longina(Manual Corona)
TTITLE8=Pearly Shells
TTITLE9=Look For A Star
TTITLE10=Red Sails In The Sunset
TTITLE11=Moonlight Bay
TTITLE12=Sail Along Silvery Moon
TTITLE13=Taboo
TTITLE14=La Cumparita
TTITLE15=La Golondrina
EXTD=
EXTT0=
EXTT1=
EXTT2=
EXTT3=
EXTT4=
EXTT5=
EXTT6=
EXTT7=
EXTT8=
EXTT9=
EXTT10=
EXTT11=
EXTT12=
EXTT13=
EXTT14=
EXTT15=
PLAYORDER=
